<svg width="180" height="234" viewBox="0 0 180 234" fill="none" xmlns="http://www.w3.org/2000/svg">
<path d="M160.922 197.975L90 233L18.8 197.975L1 20.0686L18.8 36.4693L53.2875 55.0939V2L90 36.4693L125.044 2V55.0939L160.922 36.4693L179 20.0686L160.922 197.975Z" fill="url(#paint0_radial_31_281)" stroke="#002744"/>
<path fill-rule="evenodd" clip-rule="evenodd" d="M90.8011 70.7288L73.0317 32.48V70.7288L90.8011 103.434L109.126 70.7288V32.48L90.8011 70.7288ZM144.387 139.466L90.8011 209.589L36.3825 139.466L19.4462 50.7729L36.3825 70.7288L73.0317 85.9729L90.8011 119.233L109.126 85.9729L144.387 70.7288L161.045 50.7729L144.387 139.466ZM36.3825 192.127V156.096L73.0317 209.589L36.3825 192.127ZM109.126 209.589L144.387 156.096V192.127L109.126 209.589ZM130.782 103.435L125.507 122.005L102.462 128.103L109.126 113.967L130.782 103.435ZM56.0955 122.005L50.8202 103.435L72.4766 113.967L79.1401 128.103L56.0955 122.005Z" fill="black"/>
<path d="M73.0317 32.48L73.4852 32.2693L72.5317 32.48H73.0317ZM90.8011 70.7288L90.3476 70.9395L90.7941 71.9006L91.252 70.9449L90.8011 70.7288ZM73.0317 70.7288H72.5317V70.8559L72.5924 70.9675L73.0317 70.7288ZM90.8011 103.434L90.3617 103.673L90.7943 104.469L91.2373 103.679L90.8011 103.434ZM109.126 70.7288L109.562 70.9732L109.626 70.8593V70.7288H109.126ZM109.126 32.48H109.626L108.675 32.2639L109.126 32.48ZM90.8011 209.589L90.4061 209.895L90.8041 210.408L91.1983 209.892L90.8011 209.589ZM144.387 139.466L144.784 139.769L144.856 139.675L144.878 139.558L144.387 139.466ZM36.3825 139.466L35.8914 139.56L35.9139 139.678L35.9875 139.772L36.3825 139.466ZM19.4462 50.7729L19.8274 50.4494L18.599 49.0019L18.955 50.8667L19.4462 50.7729ZM36.3825 70.7288L36.0013 71.0524L36.0793 71.1442L36.1905 71.1905L36.3825 70.7288ZM73.0317 85.9729L73.4728 85.7373L73.3886 85.5798L73.2238 85.5113L73.0317 85.9729ZM90.8011 119.233L90.3601 119.468L90.7943 120.281L91.239 119.474L90.8011 119.233ZM109.126 85.9729L108.927 85.514L108.77 85.5818L108.688 85.7316L109.126 85.9729ZM144.387 70.7288L144.585 71.1878L144.694 71.1406L144.77 71.0492L144.387 70.7288ZM161.045 50.7729L161.537 50.8652L161.891 48.9798L160.662 50.4525L161.045 50.7729ZM36.3825 156.096L36.795 155.813L35.8825 154.481V156.096H36.3825ZM36.3825 192.127H35.8825V192.443L36.1675 192.579L36.3825 192.127ZM73.0317 209.589L72.8167 210.04L74.4949 210.84L73.4442 209.306L73.0317 209.589ZM144.387 156.096H144.887V154.429L143.969 155.821L144.387 156.096ZM109.126 209.589L108.708 209.314L107.691 210.857L109.348 210.037L109.126 209.589ZM144.387 192.127L144.609 192.575L144.887 192.438V192.127H144.387ZM125.507 122.005L125.635 122.489L125.91 122.416L125.988 122.142L125.507 122.005ZM130.782 103.435L131.263 103.572L131.568 102.497L130.563 102.985L130.782 103.435ZM102.462 128.103L102.01 127.89L101.552 128.861L102.59 128.586L102.462 128.103ZM109.126 113.967L108.907 113.518L108.749 113.595L108.673 113.754L109.126 113.967ZM50.8202 103.435L51.0389 102.985L50.0339 102.497L50.3393 103.572L50.8202 103.435ZM56.0955 122.005L55.6145 122.142L55.6923 122.416L55.9676 122.489L56.0955 122.005ZM72.4766 113.967L72.9289 113.754L72.8537 113.595L72.6953 113.518L72.4766 113.967ZM79.1401 128.103L79.0122 128.586L80.0502 128.861L79.5923 127.89L79.1401 128.103ZM72.5783 32.6906L90.3476 70.9395L91.2545 70.5182L73.4852 32.2693L72.5783 32.6906ZM73.5317 70.7288V32.48H72.5317V70.7288H73.5317ZM91.2404 103.196L73.4711 70.4901L72.5924 70.9675L90.3617 103.673L91.2404 103.196ZM108.689 70.4844L90.3649 103.19L91.2373 103.679L109.562 70.9732L108.689 70.4844ZM108.626 32.48V70.7288H109.626V32.48H108.626ZM91.252 70.9449L109.577 32.696L108.675 32.2639L90.3501 70.5128L91.252 70.9449ZM91.1983 209.892L144.784 139.769L143.989 139.162L90.4038 209.285L91.1983 209.892ZM35.9875 139.772L90.4061 209.895L91.1961 209.282L36.7775 139.159L35.9875 139.772ZM18.955 50.8667L35.8914 139.56L36.8737 139.372L19.9373 50.6791L18.955 50.8667ZM36.7638 70.4053L19.8274 50.4494L19.065 51.0964L36.0013 71.0524L36.7638 70.4053ZM73.2238 85.5113L36.5746 70.2672L36.1905 71.1905L72.8397 86.4346L73.2238 85.5113ZM91.2421 118.997L73.4728 85.7373L72.5907 86.2085L90.3601 119.468L91.2421 118.997ZM108.688 85.7316L90.3631 118.992L91.239 119.474L109.564 86.2142L108.688 85.7316ZM144.188 70.2699L108.927 85.514L109.324 86.4319L144.585 71.1878L144.188 70.2699ZM160.662 50.4525L144.003 70.4084L144.77 71.0492L161.429 51.0933L160.662 50.4525ZM144.878 139.558L161.537 50.8652L160.554 50.6806L143.895 139.374L144.878 139.558ZM35.8825 156.096V192.127H36.8825V156.096H35.8825ZM73.4442 209.306L36.795 155.813L35.9701 156.378L72.6193 209.871L73.4442 209.306ZM36.1675 192.579L72.8167 210.04L73.2468 209.137L36.5976 191.676L36.1675 192.579ZM143.969 155.821L108.708 209.314L109.543 209.864L144.804 156.371L143.969 155.821ZM144.887 192.127V156.096H143.887V192.127H144.887ZM109.348 210.037L144.609 192.575L144.165 191.679L108.904 209.141L109.348 210.037ZM125.988 122.142L131.263 103.572L130.301 103.298L125.026 121.869L125.988 122.142ZM102.59 128.586L125.635 122.489L125.379 121.522L102.334 127.619L102.59 128.586ZM108.673 113.754L102.01 127.89L102.914 128.316L109.578 114.181L108.673 113.754ZM130.563 102.985L108.907 113.518L109.344 114.417L131.001 103.885L130.563 102.985ZM50.3393 103.572L55.6145 122.142L56.5765 121.869L51.3012 103.298L50.3393 103.572ZM72.6953 113.518L51.0389 102.985L50.6016 103.885L72.2579 114.417L72.6953 113.518ZM79.5923 127.89L72.9289 113.754L72.0243 114.181L78.6878 128.316L79.5923 127.89ZM55.9676 122.489L79.0122 128.586L79.268 127.619L56.2234 121.522L55.9676 122.489Z" fill="black"/>
<defs>
<radialGradient id="paint0_radial_31_281" cx="0" cy="0" r="1" gradientUnits="userSpaceOnUse" gradientTransform="translate(90 117.5) rotate(90) scale(115.5 89)">
<stop offset="0.479167" stop-color="#18A0FB"/>
<stop offset="1" stop-color="#002744"/>
</radialGradient>
</defs>
</svg>
