<svg width="252" height="63" viewBox="0 0 252 63" fill="none" xmlns="http://www.w3.org/2000/svg">
<path d="M56.8511 52.075C56.1811 52.075 55.5861 51.94 55.0661 51.67C54.5461 51.4 54.1411 51.015 53.8511 50.515C53.5611 50.015 53.4161 49.42 53.4161 48.73C53.4161 48.06 53.5261 47.44 53.7461 46.87C53.9661 46.3 54.2761 45.805 54.6761 45.385C55.0761 44.955 55.5461 44.625 56.0861 44.395C56.6361 44.165 57.2311 44.05 57.8711 44.05C58.5611 44.05 59.1461 44.175 59.6261 44.425C60.1061 44.665 60.4761 45.02 60.7361 45.49C60.9961 45.95 61.1261 46.51 61.1261 47.17C61.1261 48.12 60.9511 48.965 60.6011 49.705C60.2511 50.445 59.7561 51.025 59.1161 51.445C58.4761 51.865 57.7211 52.075 56.8511 52.075ZM57.0761 51.13C57.7361 51.13 58.3211 50.975 58.8311 50.665C59.3511 50.345 59.7561 49.905 60.0461 49.345C60.3461 48.785 60.4961 48.15 60.4961 47.44C60.4961 46.66 60.2661 46.055 59.8061 45.625C59.3561 45.195 58.7211 44.98 57.9011 44.98C57.2511 44.98 56.6661 45.14 56.1461 45.46C55.6261 45.78 55.2161 46.22 54.9161 46.78C54.6261 47.33 54.4811 47.965 54.4811 48.685C54.4811 49.455 54.7061 50.055 55.1561 50.485C55.6161 50.915 56.2561 51.13 57.0761 51.13ZM59.6711 52L60.1211 49.735L60.5711 48.145L60.7211 46.495L61.2011 44.125H62.2661L60.6911 52H59.6711ZM67.1329 52L69.3529 40.87H70.4179L69.3079 46.405L68.8279 47.965L68.6479 49.495L68.1529 52H67.1329ZM71.5129 52.075C70.8329 52.075 70.2479 51.955 69.7579 51.715C69.2779 51.465 68.9079 51.11 68.6479 50.65C68.3979 50.18 68.2679 49.615 68.2579 48.955C68.2579 48.235 68.3579 47.575 68.5579 46.975C68.7579 46.375 69.0429 45.86 69.4129 45.43C69.7929 44.99 70.2429 44.65 70.7629 44.41C71.2929 44.17 71.8829 44.05 72.5329 44.05C73.2129 44.05 73.8079 44.185 74.3179 44.455C74.8379 44.715 75.2429 45.095 75.5329 45.595C75.8329 46.095 75.9829 46.69 75.9829 47.38C75.9829 48.06 75.8729 48.685 75.6529 49.255C75.4329 49.825 75.1179 50.32 74.7079 50.74C74.3079 51.16 73.8379 51.49 73.2979 51.73C72.7579 51.96 72.1629 52.075 71.5129 52.075ZM71.4979 51.13C72.1579 51.13 72.7429 50.975 73.2529 50.665C73.7629 50.345 74.1629 49.905 74.4529 49.345C74.7529 48.785 74.9029 48.15 74.9029 47.44C74.9029 46.66 74.6779 46.055 74.2279 45.625C73.7779 45.195 73.1379 44.98 72.3079 44.98C71.6579 44.98 71.0729 45.14 70.5529 45.46C70.0429 45.78 69.6379 46.22 69.3379 46.78C69.0479 47.33 68.9029 47.965 68.9029 48.685C68.9029 49.455 69.1279 50.055 69.5779 50.485C70.0279 50.915 70.6679 51.13 71.4979 51.13ZM80.6739 52.075C79.9239 52.075 79.2689 51.94 78.7089 51.67C78.1589 51.39 77.7339 51 77.4339 50.5C77.1439 50 76.9989 49.405 76.9989 48.715C76.9989 47.815 77.1889 47.015 77.5689 46.315C77.9489 45.615 78.4689 45.065 79.1289 44.665C79.7889 44.255 80.5339 44.05 81.3639 44.05C82.0639 44.05 82.6689 44.185 83.1789 44.455C83.6889 44.715 84.0839 45.095 84.3639 45.595C84.6539 46.095 84.7989 46.695 84.7989 47.395C84.7989 47.555 84.7889 47.72 84.7689 47.89C84.7489 48.05 84.7239 48.205 84.6939 48.355H77.7789L77.9139 47.56H84.1989L83.7639 47.86C83.8639 47.23 83.8189 46.7 83.6289 46.27C83.4389 45.84 83.1439 45.515 82.7439 45.295C82.3539 45.065 81.8839 44.95 81.3339 44.95C80.6939 44.95 80.1239 45.11 79.6239 45.43C79.1239 45.74 78.7339 46.175 78.4539 46.735C78.1739 47.285 78.0339 47.93 78.0339 48.67C78.0339 49.46 78.2589 50.07 78.7089 50.5C79.1689 50.92 79.8539 51.13 80.7639 51.13C81.2939 51.13 81.7839 51.045 82.2339 50.875C82.6839 50.695 83.0539 50.45 83.3439 50.14L83.8239 50.905C83.4539 51.275 82.9889 51.565 82.4289 51.775C81.8789 51.975 81.2939 52.075 80.6739 52.075ZM88.4067 52.075C87.9567 52.075 87.5717 51.98 87.2517 51.79C86.9317 51.59 86.7067 51.31 86.5767 50.95C86.4567 50.59 86.4467 50.16 86.5467 49.66L87.9867 42.385H89.0517L87.6117 49.615C87.5117 50.105 87.5467 50.485 87.7167 50.755C87.8967 51.025 88.2217 51.16 88.6917 51.16C88.9117 51.16 89.1267 51.13 89.3367 51.07C89.5467 51 89.7367 50.895 89.9067 50.755L90.1617 51.565C89.9117 51.755 89.6317 51.89 89.3217 51.97C89.0117 52.04 88.7067 52.075 88.4067 52.075ZM86.0667 45.01L86.2317 44.125H91.1067L90.9267 45.01H86.0667ZM94.0411 52.075C93.5911 52.075 93.2061 51.98 92.8861 51.79C92.5661 51.59 92.3411 51.31 92.2111 50.95C92.0911 50.59 92.0811 50.16 92.1811 49.66L93.6211 42.385H94.6861L93.2461 49.615C93.1461 50.105 93.1811 50.485 93.3511 50.755C93.5311 51.025 93.8561 51.16 94.3261 51.16C94.5461 51.16 94.7611 51.13 94.9711 51.07C95.1811 51 95.3711 50.895 95.5411 50.755L95.7961 51.565C95.5461 51.755 95.2661 51.89 94.9561 51.97C94.6461 52.04 94.3411 52.075 94.0411 52.075ZM91.7011 45.01L91.8661 44.125H96.7411L96.5611 45.01H91.7011ZM100.726 52.075C99.9765 52.075 99.3215 51.94 98.7615 51.67C98.2115 51.39 97.7865 51 97.4865 50.5C97.1965 50 97.0515 49.405 97.0515 48.715C97.0515 47.815 97.2415 47.015 97.6215 46.315C98.0015 45.615 98.5215 45.065 99.1815 44.665C99.8415 44.255 100.586 44.05 101.416 44.05C102.116 44.05 102.721 44.185 103.231 44.455C103.741 44.715 104.136 45.095 104.416 45.595C104.706 46.095 104.851 46.695 104.851 47.395C104.851 47.555 104.841 47.72 104.821 47.89C104.801 48.05 104.776 48.205 104.746 48.355H97.8315L97.9665 47.56H104.251L103.816 47.86C103.916 47.23 103.871 46.7 103.681 46.27C103.491 45.84 103.196 45.515 102.796 45.295C102.406 45.065 101.936 44.95 101.386 44.95C100.746 44.95 100.176 45.11 99.6765 45.43C99.1765 45.74 98.7865 46.175 98.5065 46.735C98.2265 47.285 98.0865 47.93 98.0865 48.67C98.0865 49.46 98.3115 50.07 98.7615 50.5C99.2215 50.92 99.9065 51.13 100.816 51.13C101.346 51.13 101.836 51.045 102.286 50.875C102.736 50.695 103.106 50.45 103.396 50.14L103.876 50.905C103.506 51.275 103.041 51.565 102.481 51.775C101.931 51.975 101.346 52.075 100.726 52.075ZM105.954 52L107.514 44.125H108.534L108.084 46.45L107.964 46.045C108.314 45.355 108.774 44.85 109.344 44.53C109.924 44.21 110.644 44.05 111.504 44.05L111.309 45.085C111.259 45.085 111.209 45.085 111.159 45.085C111.119 45.075 111.069 45.07 111.009 45.07C110.169 45.07 109.474 45.315 108.924 45.805C108.384 46.285 108.014 47.015 107.814 47.995L107.019 52H105.954ZM119.831 52.075C119.151 52.075 118.566 51.955 118.076 51.715C117.596 51.465 117.226 51.11 116.966 50.65C116.716 50.18 116.586 49.615 116.576 48.955C116.576 47.985 116.751 47.135 117.101 46.405C117.451 45.665 117.946 45.09 118.586 44.68C119.226 44.26 119.981 44.05 120.851 44.05C121.531 44.05 122.126 44.185 122.636 44.455C123.156 44.715 123.561 45.095 123.851 45.595C124.151 46.095 124.301 46.69 124.301 47.38C124.301 48.06 124.191 48.685 123.971 49.255C123.751 49.825 123.436 50.32 123.026 50.74C122.626 51.16 122.156 51.49 121.616 51.73C121.076 51.96 120.481 52.075 119.831 52.075ZM114.866 54.91L117.011 44.125H118.031L117.581 46.39L117.146 47.965L116.981 49.615L115.931 54.91H114.866ZM119.816 51.13C120.476 51.13 121.061 50.975 121.571 50.665C122.081 50.345 122.481 49.905 122.771 49.345C123.071 48.785 123.221 48.15 123.221 47.44C123.221 46.66 122.996 46.055 122.546 45.625C122.096 45.195 121.456 44.98 120.626 44.98C119.976 44.98 119.391 45.14 118.871 45.46C118.361 45.78 117.956 46.22 117.656 46.78C117.366 47.33 117.221 47.965 117.221 48.685C117.221 49.455 117.446 50.055 117.896 50.485C118.346 50.915 118.986 51.13 119.816 51.13ZM128.752 52.075C128.082 52.075 127.487 51.94 126.967 51.67C126.447 51.4 126.042 51.015 125.752 50.515C125.462 50.015 125.317 49.42 125.317 48.73C125.317 48.06 125.427 47.44 125.647 46.87C125.867 46.3 126.177 45.805 126.577 45.385C126.977 44.955 127.447 44.625 127.987 44.395C128.537 44.165 129.132 44.05 129.772 44.05C130.462 44.05 131.047 44.175 131.527 44.425C132.007 44.665 132.377 45.02 132.637 45.49C132.897 45.95 133.027 46.51 133.027 47.17C133.027 48.12 132.852 48.965 132.502 49.705C132.152 50.445 131.657 51.025 131.017 51.445C130.377 51.865 129.622 52.075 128.752 52.075ZM128.977 51.13C129.637 51.13 130.222 50.975 130.732 50.665C131.252 50.345 131.657 49.905 131.947 49.345C132.247 48.785 132.397 48.15 132.397 47.44C132.397 46.66 132.167 46.055 131.707 45.625C131.257 45.195 130.622 44.98 129.802 44.98C129.152 44.98 128.567 45.14 128.047 45.46C127.527 45.78 127.117 46.22 126.817 46.78C126.527 47.33 126.382 47.965 126.382 48.685C126.382 49.455 126.607 50.055 127.057 50.485C127.517 50.915 128.157 51.13 128.977 51.13ZM131.572 52L132.022 49.735L132.472 48.145L132.622 46.495L133.102 44.125H134.167L132.592 52H131.572ZM135.333 52L136.893 44.125H137.913L137.463 46.45L137.343 46.045C137.693 45.355 138.153 44.85 138.723 44.53C139.303 44.21 140.023 44.05 140.883 44.05L140.688 45.085C140.638 45.085 140.588 45.085 140.538 45.085C140.498 45.075 140.448 45.07 140.388 45.07C139.548 45.07 138.853 45.315 138.303 45.805C137.763 46.285 137.393 47.015 137.193 47.995L136.398 52H135.333ZM142.286 49.9L142.496 48.595L148.226 44.125H149.741L145.436 47.47L144.851 47.92L142.286 49.9ZM141.011 52L143.231 40.87H144.296L142.076 52H141.011ZM147.161 52L144.671 47.905L145.406 47.11L148.406 52H147.161ZM149.634 52L151.194 44.125H152.259L150.699 52H149.634ZM152.184 42.385C151.974 42.385 151.799 42.315 151.659 42.175C151.529 42.035 151.464 41.87 151.464 41.68C151.464 41.46 151.539 41.27 151.689 41.11C151.849 40.95 152.049 40.87 152.289 40.87C152.499 40.87 152.674 40.935 152.814 41.065C152.954 41.195 153.024 41.36 153.024 41.56C153.024 41.8 152.944 42 152.784 42.16C152.624 42.31 152.424 42.385 152.184 42.385ZM158.852 44.05C159.562 44.05 160.142 44.19 160.592 44.47C161.052 44.74 161.367 45.135 161.537 45.655C161.717 46.175 161.732 46.795 161.582 47.515L160.682 52H159.617L160.517 47.5C160.677 46.72 160.592 46.11 160.262 45.67C159.942 45.23 159.372 45.01 158.552 45.01C157.712 45.01 157.012 45.24 156.452 45.7C155.902 46.16 155.532 46.85 155.342 47.77L154.502 52H153.437L154.997 44.125H156.017L155.567 46.39L155.342 46C155.722 45.32 156.212 44.825 156.812 44.515C157.422 44.205 158.102 44.05 158.852 44.05ZM166.259 54.985C165.529 54.985 164.864 54.88 164.264 54.67C163.664 54.47 163.159 54.18 162.749 53.8L163.379 52.99C163.699 53.31 164.114 53.565 164.624 53.755C165.144 53.945 165.714 54.04 166.334 54.04C167.334 54.04 168.109 53.81 168.659 53.35C169.209 52.89 169.574 52.18 169.754 51.22L170.174 49.15L170.579 47.86L170.744 46.51L171.209 44.125H172.229L170.849 51.04C170.579 52.43 170.069 53.435 169.319 54.055C168.569 54.675 167.549 54.985 166.259 54.985ZM166.784 51.7C166.094 51.7 165.484 51.57 164.954 51.31C164.434 51.05 164.029 50.685 163.739 50.215C163.449 49.735 163.304 49.17 163.304 48.52C163.304 47.88 163.414 47.29 163.634 46.75C163.854 46.21 164.164 45.74 164.564 45.34C164.964 44.93 165.439 44.615 165.989 44.395C166.539 44.165 167.144 44.05 167.804 44.05C168.434 44.05 168.994 44.16 169.484 44.38C169.974 44.6 170.359 44.93 170.639 45.37C170.929 45.81 171.074 46.37 171.074 47.05C171.084 47.91 170.914 48.695 170.564 49.405C170.214 50.105 169.719 50.665 169.079 51.085C168.439 51.495 167.674 51.7 166.784 51.7ZM166.994 50.755C167.654 50.755 168.239 50.605 168.749 50.305C169.269 50.005 169.679 49.595 169.979 49.075C170.279 48.545 170.429 47.945 170.429 47.275C170.429 46.555 170.199 45.995 169.739 45.595C169.279 45.185 168.639 44.98 167.819 44.98C167.159 44.98 166.569 45.13 166.049 45.43C165.529 45.73 165.119 46.145 164.819 46.675C164.529 47.195 164.384 47.79 164.384 48.46C164.384 49.18 164.614 49.745 165.074 50.155C165.534 50.555 166.174 50.755 166.994 50.755ZM179.388 52.075C178.748 52.075 178.143 51.985 177.573 51.805C177.003 51.625 176.563 51.395 176.253 51.115L176.763 50.275C177.063 50.545 177.458 50.76 177.948 50.92C178.438 51.07 178.953 51.145 179.493 51.145C180.243 51.145 180.818 51.02 181.218 50.77C181.628 50.52 181.833 50.175 181.833 49.735C181.833 49.435 181.723 49.21 181.503 49.06C181.293 48.9 181.018 48.78 180.678 48.7C180.338 48.61 179.978 48.525 179.598 48.445C179.218 48.365 178.858 48.265 178.518 48.145C178.178 48.015 177.898 47.82 177.678 47.56C177.468 47.3 177.363 46.95 177.363 46.51C177.363 46.01 177.503 45.575 177.783 45.205C178.073 44.835 178.473 44.55 178.983 44.35C179.493 44.15 180.093 44.05 180.783 44.05C181.283 44.05 181.778 44.115 182.268 44.245C182.758 44.375 183.153 44.555 183.453 44.785L183.003 45.64C182.693 45.4 182.333 45.23 181.923 45.13C181.513 45.02 181.103 44.965 180.693 44.965C179.963 44.965 179.398 45.1 178.998 45.37C178.608 45.63 178.413 45.975 178.413 46.405C178.413 46.705 178.518 46.935 178.728 47.095C178.948 47.255 179.228 47.38 179.568 47.47C179.908 47.56 180.268 47.645 180.648 47.725C181.038 47.795 181.398 47.895 181.728 48.025C182.068 48.155 182.343 48.345 182.553 48.595C182.773 48.835 182.883 49.175 182.883 49.615C182.883 50.135 182.738 50.58 182.448 50.95C182.158 51.31 181.748 51.59 181.218 51.79C180.698 51.98 180.088 52.075 179.388 52.075ZM187.702 52.075C186.972 52.075 186.337 51.94 185.797 51.67C185.267 51.39 184.852 51 184.552 50.5C184.262 50 184.117 49.41 184.117 48.73C184.117 47.83 184.312 47.03 184.702 46.33C185.092 45.62 185.632 45.065 186.322 44.665C187.012 44.255 187.797 44.05 188.677 44.05C189.407 44.05 190.037 44.185 190.567 44.455C191.107 44.725 191.522 45.11 191.812 45.61C192.112 46.11 192.262 46.7 192.262 47.38C192.262 48.28 192.067 49.085 191.677 49.795C191.287 50.495 190.747 51.05 190.057 51.46C189.377 51.87 188.592 52.075 187.702 52.075ZM187.777 51.13C188.437 51.13 189.022 50.975 189.532 50.665C190.052 50.345 190.457 49.905 190.747 49.345C191.047 48.785 191.197 48.15 191.197 47.44C191.197 46.66 190.967 46.055 190.507 45.625C190.057 45.195 189.422 44.98 188.602 44.98C187.952 44.98 187.367 45.14 186.847 45.46C186.327 45.78 185.917 46.22 185.617 46.78C185.327 47.33 185.182 47.965 185.182 48.685C185.182 49.455 185.407 50.055 185.857 50.485C186.317 50.915 186.957 51.13 187.777 51.13ZM193.371 52L195.591 40.87H196.656L194.436 52H193.371ZM200.475 52.075C199.785 52.075 199.21 51.935 198.75 51.655C198.3 51.375 197.99 50.975 197.82 50.455C197.65 49.935 197.63 49.32 197.76 48.61L198.66 44.125H199.725L198.825 48.61C198.675 49.39 198.76 50.005 199.08 50.455C199.4 50.895 199.96 51.115 200.76 51.115C201.59 51.115 202.28 50.885 202.83 50.425C203.39 49.965 203.765 49.275 203.955 48.355L204.795 44.125H205.86L204.285 52H203.265L203.715 49.735L203.94 50.11C203.57 50.79 203.08 51.29 202.47 51.61C201.87 51.92 201.205 52.075 200.475 52.075ZM209.533 52.075C209.083 52.075 208.698 51.98 208.378 51.79C208.058 51.59 207.833 51.31 207.703 50.95C207.583 50.59 207.573 50.16 207.673 49.66L209.113 42.385H210.178L208.738 49.615C208.638 50.105 208.673 50.485 208.843 50.755C209.023 51.025 209.348 51.16 209.818 51.16C210.038 51.16 210.253 51.13 210.463 51.07C210.673 51 210.863 50.895 211.033 50.755L211.288 51.565C211.038 51.755 210.758 51.89 210.448 51.97C210.138 52.04 209.833 52.075 209.533 52.075ZM207.193 45.01L207.358 44.125H212.233L212.053 45.01H207.193ZM212.897 52L214.457 44.125H215.522L213.962 52H212.897ZM215.447 42.385C215.237 42.385 215.062 42.315 214.922 42.175C214.792 42.035 214.727 41.87 214.727 41.68C214.727 41.46 214.802 41.27 214.952 41.11C215.112 40.95 215.312 40.87 215.552 40.87C215.762 40.87 215.937 40.935 216.077 41.065C216.217 41.195 216.287 41.36 216.287 41.56C216.287 41.8 216.207 42 216.047 42.16C215.887 42.31 215.687 42.385 215.447 42.385ZM220.21 52.075C219.48 52.075 218.845 51.94 218.305 51.67C217.775 51.39 217.36 51 217.06 50.5C216.77 50 216.625 49.41 216.625 48.73C216.625 47.83 216.82 47.03 217.21 46.33C217.6 45.62 218.14 45.065 218.83 44.665C219.52 44.255 220.305 44.05 221.185 44.05C221.915 44.05 222.545 44.185 223.075 44.455C223.615 44.725 224.03 45.11 224.32 45.61C224.62 46.11 224.77 46.7 224.77 47.38C224.77 48.28 224.575 49.085 224.185 49.795C223.795 50.495 223.255 51.05 222.565 51.46C221.885 51.87 221.1 52.075 220.21 52.075ZM220.285 51.13C220.945 51.13 221.53 50.975 222.04 50.665C222.56 50.345 222.965 49.905 223.255 49.345C223.555 48.785 223.705 48.15 223.705 47.44C223.705 46.66 223.475 46.055 223.015 45.625C222.565 45.195 221.93 44.98 221.11 44.98C220.46 44.98 219.875 45.14 219.355 45.46C218.835 45.78 218.425 46.22 218.125 46.78C217.835 47.33 217.69 47.965 217.69 48.685C217.69 49.455 217.915 50.055 218.365 50.485C218.825 50.915 219.465 51.13 220.285 51.13ZM231.294 44.05C232.004 44.05 232.584 44.19 233.034 44.47C233.494 44.74 233.809 45.135 233.979 45.655C234.159 46.175 234.174 46.795 234.024 47.515L233.124 52H232.059L232.959 47.5C233.119 46.72 233.034 46.11 232.704 45.67C232.384 45.23 231.814 45.01 230.994 45.01C230.154 45.01 229.454 45.24 228.894 45.7C228.344 46.16 227.974 46.85 227.784 47.77L226.944 52H225.879L227.439 44.125H228.459L228.009 46.39L227.784 46C228.164 45.32 228.654 44.825 229.254 44.515C229.864 44.205 230.544 44.05 231.294 44.05Z" fill="#18A0FB"/>
<path d="M52.8118 35V16.8H61.0798C63.0558 16.8 64.7978 17.1813 66.3058 17.944C67.8138 18.6893 68.9925 19.738 69.8418 21.09C70.6911 22.442 71.1158 24.0453 71.1158 25.9C71.1158 27.7373 70.6911 29.3407 69.8418 30.71C68.9925 32.062 67.8138 33.1193 66.3058 33.882C64.7978 34.6273 63.0558 35 61.0798 35H52.8118ZM57.0238 31.542H60.8718C62.0851 31.542 63.1338 31.3167 64.0178 30.866C64.9191 30.398 65.6125 29.7393 66.0978 28.89C66.6005 28.0407 66.8518 27.044 66.8518 25.9C66.8518 24.7387 66.6005 23.742 66.0978 22.91C65.6125 22.0607 64.9191 21.4107 64.0178 20.96C63.1338 20.492 62.0851 20.258 60.8718 20.258H57.0238V31.542ZM77.7763 24.132H86.5383V27.408H77.7763V24.132ZM78.0883 31.62H87.9943V35H73.9023V16.8H87.6563V20.18H78.0883V31.62ZM99.6656 35.312C98.2616 35.312 96.953 35.0867 95.7396 34.636C94.5436 34.168 93.5036 33.5093 92.6196 32.66C91.7356 31.8107 91.0423 30.814 90.5396 29.67C90.0543 28.526 89.8116 27.2693 89.8116 25.9C89.8116 24.5307 90.0543 23.274 90.5396 22.13C91.0423 20.986 91.7356 19.9893 92.6196 19.14C93.521 18.2907 94.5696 17.6407 95.7656 17.19C96.9616 16.722 98.2703 16.488 99.6916 16.488C101.269 16.488 102.69 16.7653 103.956 17.32C105.238 17.8573 106.313 18.6547 107.18 19.712L104.476 22.208C103.852 21.4973 103.158 20.9687 102.396 20.622C101.633 20.258 100.801 20.076 99.8996 20.076C99.0503 20.076 98.2703 20.2147 97.5596 20.492C96.849 20.7693 96.2336 21.168 95.7136 21.688C95.1936 22.208 94.7863 22.8233 94.4916 23.534C94.2143 24.2447 94.0756 25.0333 94.0756 25.9C94.0756 26.7667 94.2143 27.5553 94.4916 28.266C94.7863 28.9767 95.1936 29.592 95.7136 30.112C96.2336 30.632 96.849 31.0307 97.5596 31.308C98.2703 31.5853 99.0503 31.724 99.8996 31.724C100.801 31.724 101.633 31.5507 102.396 31.204C103.158 30.84 103.852 30.294 104.476 29.566L107.18 32.062C106.313 33.1193 105.238 33.9253 103.956 34.48C102.69 35.0347 101.26 35.312 99.6656 35.312ZM113.508 24.132H122.27V27.408H113.508V24.132ZM113.82 31.62H123.726V35H109.634V16.8H123.388V20.18H113.82V31.62ZM126.687 35V16.8H134.565C136.195 16.8 137.599 17.0687 138.777 17.606C139.956 18.126 140.866 18.88 141.507 19.868C142.149 20.856 142.469 22.0347 142.469 23.404C142.469 24.756 142.149 25.926 141.507 26.914C140.866 27.902 139.956 28.6647 138.777 29.202C137.599 29.722 136.195 29.982 134.565 29.982H129.027L130.899 28.084V35H126.687ZM130.899 28.552L129.027 26.55H134.331C135.631 26.55 136.602 26.2727 137.243 25.718C137.885 25.1633 138.205 24.392 138.205 23.404C138.205 22.3987 137.885 21.6187 137.243 21.064C136.602 20.5093 135.631 20.232 134.331 20.232H129.027L130.899 18.23V28.552ZM148.374 35V20.232H142.55V16.8H158.41V20.232H152.586V35H148.374ZM160.286 35V16.8H164.498V35H160.286ZM177.138 35.312C175.734 35.312 174.425 35.0867 173.212 34.636C172.016 34.168 170.976 33.5093 170.092 32.66C169.208 31.8107 168.514 30.814 168.012 29.67C167.526 28.526 167.284 27.2693 167.284 25.9C167.284 24.5307 167.526 23.274 168.012 22.13C168.514 20.986 169.208 19.9893 170.092 19.14C170.993 18.2907 172.042 17.6407 173.238 17.19C174.434 16.722 175.742 16.488 177.164 16.488C178.741 16.488 180.162 16.7653 181.428 17.32C182.71 17.8573 183.785 18.6547 184.652 19.712L181.948 22.208C181.324 21.4973 180.63 20.9687 179.868 20.622C179.105 20.258 178.273 20.076 177.372 20.076C176.522 20.076 175.742 20.2147 175.032 20.492C174.321 20.7693 173.706 21.168 173.186 21.688C172.666 22.208 172.258 22.8233 171.964 23.534C171.686 24.2447 171.548 25.0333 171.548 25.9C171.548 26.7667 171.686 27.5553 171.964 28.266C172.258 28.9767 172.666 29.592 173.186 30.112C173.706 30.632 174.321 31.0307 175.032 31.308C175.742 31.5853 176.522 31.724 177.372 31.724C178.273 31.724 179.105 31.5507 179.868 31.204C180.63 30.84 181.324 30.294 181.948 29.566L184.652 32.062C183.785 33.1193 182.71 33.9253 181.428 34.48C180.162 35.0347 178.732 35.312 177.138 35.312ZM184.384 35L192.496 16.8H196.656L204.794 35H200.374L193.718 18.932H195.382L188.7 35H184.384ZM188.44 31.1L189.558 27.902H198.918L200.062 31.1H188.44ZM206.292 35V16.8H214.17C215.799 16.8 217.203 17.0687 218.382 17.606C219.561 18.126 220.471 18.88 221.112 19.868C221.753 20.856 222.074 22.0347 222.074 23.404C222.074 24.756 221.753 25.926 221.112 26.914C220.471 27.8847 219.561 28.63 218.382 29.15C217.203 29.67 215.799 29.93 214.17 29.93H208.632L210.504 28.084V35H206.292ZM217.862 35L213.312 28.396H217.81L222.412 35H217.862ZM210.504 28.552L208.632 26.576H213.936C215.236 26.576 216.207 26.2987 216.848 25.744C217.489 25.172 217.81 24.392 217.81 23.404C217.81 22.3987 217.489 21.6187 216.848 21.064C216.207 20.5093 215.236 20.232 213.936 20.232H208.632L210.504 18.23V28.552ZM231.001 35.312C229.545 35.312 228.15 35.1213 226.815 34.74C225.481 34.3413 224.406 33.83 223.591 33.206L225.021 30.034C225.801 30.5887 226.72 31.048 227.777 31.412C228.852 31.7587 229.935 31.932 231.027 31.932C231.859 31.932 232.527 31.854 233.029 31.698C233.549 31.5247 233.931 31.2907 234.173 30.996C234.416 30.7013 234.537 30.3633 234.537 29.982C234.537 29.4967 234.347 29.1153 233.965 28.838C233.584 28.5433 233.081 28.3093 232.457 28.136C231.833 27.9453 231.14 27.772 230.377 27.616C229.632 27.4427 228.878 27.2347 228.115 26.992C227.37 26.7493 226.685 26.4373 226.061 26.056C225.437 25.6747 224.926 25.172 224.527 24.548C224.146 23.924 223.955 23.1267 223.955 22.156C223.955 21.116 224.233 20.1713 224.787 19.322C225.359 18.4553 226.209 17.7707 227.335 17.268C228.479 16.748 229.909 16.488 231.625 16.488C232.769 16.488 233.896 16.6267 235.005 16.904C236.115 17.164 237.094 17.5627 237.943 18.1L236.643 21.298C235.794 20.8127 234.945 20.4573 234.095 20.232C233.246 19.9893 232.414 19.868 231.599 19.868C230.785 19.868 230.117 19.9633 229.597 20.154C229.077 20.3447 228.705 20.596 228.479 20.908C228.254 21.2027 228.141 21.5493 228.141 21.948C228.141 22.416 228.332 22.7973 228.713 23.092C229.095 23.3693 229.597 23.5947 230.221 23.768C230.845 23.9413 231.53 24.1147 232.275 24.288C233.038 24.4613 233.792 24.6607 234.537 24.886C235.3 25.1113 235.993 25.4147 236.617 25.796C237.241 26.1773 237.744 26.68 238.125 27.304C238.524 27.928 238.723 28.7167 238.723 29.67C238.723 30.6927 238.437 31.6287 237.865 32.478C237.293 33.3273 236.435 34.012 235.291 34.532C234.165 35.052 232.735 35.312 231.001 35.312Z" fill="#18A0FB"/>
<path d="M46.0973 53.76V16.32H46.8973V53.76H46.0973Z" fill="#18A0FB"/>
<path d="M36.9375 51.1155L21 59L5 51.1155L1 11.0674L5 14.7593L12.75 18.9519V7L21 14.7593L28.875 7V18.9519L36.9375 14.7593L41 11.0674L36.9375 51.1155Z" fill="url(#paint0_radial_110_294)" stroke="#002744"/>
<path fill-rule="evenodd" clip-rule="evenodd" d="M21.1801 22.4715L17.187 13.8613V22.4715L21.1801 29.8337L25.298 22.4715V13.8613L21.1801 22.4715ZM33.2218 37.9447L21.1801 53.73L8.95119 37.9447L5.14526 17.9792L8.95119 22.4715L17.187 25.903L21.1801 33.3901L25.298 25.903L33.2218 22.4715L36.9653 17.9792L33.2218 37.9447ZM8.95119 49.7993V41.6883L17.187 53.73L8.95119 49.7993ZM25.298 53.73L33.2218 41.6883V49.7993L25.298 53.73ZM30.1646 29.8339L28.9791 34.0142L23.8006 35.3868L25.298 32.2048L30.1646 29.8339ZM13.3811 34.0142L12.1956 29.8339L17.0622 32.2048L18.5596 35.3868L13.3811 34.0142Z" fill="black"/>
<path d="M17.187 13.8613L17.6406 13.651L16.687 13.8613H17.187ZM21.1801 22.4715L20.7265 22.6818L21.1731 23.6449L21.6311 22.6872L21.1801 22.4715ZM17.187 22.4715H16.687V22.5983L16.7475 22.7098L17.187 22.4715ZM21.1801 29.8337L20.7406 30.0721L21.1733 30.8701L21.6164 30.0778L21.1801 29.8337ZM25.298 22.4715L25.7343 22.7155L25.798 22.6018V22.4715H25.298ZM25.298 13.8613H25.798L24.8469 13.6456L25.298 13.8613ZM21.1801 53.73L20.7848 54.0362L21.1831 54.5503L21.5776 54.0332L21.1801 53.73ZM33.2218 37.9447L33.6193 38.248L33.6913 38.1536L33.7132 38.0369L33.2218 37.9447ZM8.95119 37.9447L8.46003 38.0384L8.48249 38.1562L8.55593 38.2509L8.95119 37.9447ZM5.14526 17.9792L5.52676 17.656L4.29823 16.2059L4.65411 18.0728L5.14526 17.9792ZM8.95119 22.4715L8.5697 22.7947L8.64762 22.8866L8.75888 22.933L8.95119 22.4715ZM17.187 25.903L17.6281 25.6677L17.5441 25.5102L17.3793 25.4415L17.187 25.903ZM21.1801 33.3901L20.7389 33.6254L21.1733 34.4399L21.6182 33.6311L21.1801 33.3901ZM25.298 25.903L25.0993 25.4442L24.9423 25.5122L24.8599 25.6621L25.298 25.903ZM33.2218 22.4715L33.4205 22.9303L33.5297 22.883L33.6059 22.7915L33.2218 22.4715ZM36.9653 17.9792L37.4567 18.0714L37.8107 16.1838L36.5812 17.6591L36.9653 17.9792ZM8.95119 41.6883L9.3639 41.406L8.45119 40.0715V41.6883H8.95119ZM8.95119 49.7993H8.45119V50.1147L8.73583 50.2505L8.95119 49.7993ZM17.187 53.73L16.9716 54.1812L18.6488 54.9817L17.5997 53.4477L17.187 53.73ZM33.2218 41.6883H33.7218V40.0188L32.8041 41.4134L33.2218 41.6883ZM25.298 53.73L24.8803 53.4551L23.8641 54.9994L25.5202 54.1779L25.298 53.73ZM33.2218 49.7993L33.444 50.2472L33.7218 50.1094V49.7993H33.2218ZM28.9791 34.0142L29.1072 34.4975L29.3825 34.4245L29.4601 34.1506L28.9791 34.0142ZM30.1646 29.8339L30.6456 29.9703L30.9506 28.8948L29.9456 29.3844L30.1646 29.8339ZM23.8006 35.3868L23.3481 35.1739L22.8911 36.1451L23.9287 35.8701L23.8006 35.3868ZM25.298 32.2048L25.079 31.7553L24.9206 31.8325L24.8456 31.9919L25.298 32.2048ZM12.1956 29.8339L12.4146 29.3844L11.4096 28.8948L11.7146 29.9703L12.1956 29.8339ZM13.3811 34.0142L12.9 34.1506L12.9777 34.4245L13.253 34.4975L13.3811 34.0142ZM17.0622 32.2048L17.5146 31.9919L17.4396 31.8325L17.2812 31.7553L17.0622 32.2048ZM18.5596 35.3868L18.4315 35.8701L19.4691 36.1451L19.012 35.1739L18.5596 35.3868ZM16.7334 14.0717L20.7265 22.6818L21.6337 22.2611L17.6406 13.651L16.7334 14.0717ZM17.687 22.4715V13.8613H16.687V22.4715H17.687ZM21.6196 29.5954L17.6265 22.2331L16.7475 22.7098L20.7406 30.0721L21.6196 29.5954ZM24.8616 22.2274L20.7437 29.5897L21.6164 30.0778L25.7343 22.7155L24.8616 22.2274ZM24.798 13.8613V22.4715H25.798V13.8613H24.798ZM21.6311 22.6872L25.749 14.0771L24.8469 13.6456L20.729 22.2557L21.6311 22.6872ZM21.5776 54.0332L33.6193 38.248L32.8242 37.6415L20.7825 53.4267L21.5776 54.0332ZM8.55593 38.2509L20.7848 54.0362L21.5753 53.4238L9.34645 37.6385L8.55593 38.2509ZM4.65411 18.0728L8.46003 38.0384L9.44235 37.8511L5.63642 17.8856L4.65411 18.0728ZM9.33268 22.1482L5.52676 17.656L4.76377 18.3024L8.5697 22.7947L9.33268 22.1482ZM17.3793 25.4415L9.1435 22.0099L8.75888 22.933L16.9947 26.3646L17.3793 25.4415ZM21.6212 33.1548L17.6281 25.6677L16.7458 26.1383L20.7389 33.6254L21.6212 33.1548ZM24.8599 25.6621L20.742 33.1491L21.6182 33.6311L25.7361 26.144L24.8599 25.6621ZM33.0231 22.0126L25.0993 25.4442L25.4967 26.3619L33.4205 22.9303L33.0231 22.0126ZM36.5812 17.6591L32.8377 22.1514L33.6059 22.7915L37.3494 18.2993L36.5812 17.6591ZM33.7132 38.0369L37.4567 18.0714L36.4739 17.8871L32.7303 37.8526L33.7132 38.0369ZM8.45119 41.6883V49.7993H9.45119V41.6883H8.45119ZM17.5997 53.4477L9.3639 41.406L8.53848 41.9705L16.7743 54.0122L17.5997 53.4477ZM8.73583 50.2505L16.9716 54.1812L17.4023 53.2787L9.16656 49.348L8.73583 50.2505ZM32.8041 41.4134L24.8803 53.4551L25.7156 54.0048L33.6395 41.9631L32.8041 41.4134ZM33.7218 49.7993V41.6883H32.7218V49.7993H33.7218ZM25.5202 54.1779L33.444 50.2472L32.9996 49.3513L25.0758 53.2821L25.5202 54.1779ZM29.4601 34.1506L30.6456 29.9703L29.6835 29.6975L28.4981 33.8778L29.4601 34.1506ZM23.9287 35.8701L29.1072 34.4975L28.851 33.5309L23.6724 34.9035L23.9287 35.8701ZM24.8456 31.9919L23.3481 35.1739L24.253 35.5997L25.7504 32.4177L24.8456 31.9919ZM29.9456 29.3844L25.079 31.7553L25.517 32.6543L30.3835 30.2834L29.9456 29.3844ZM11.7146 29.9703L12.9 34.1506L13.8621 33.8778L12.6766 29.6975L11.7146 29.9703ZM17.2812 31.7553L12.4146 29.3844L11.9766 30.2834L16.8432 32.6543L17.2812 31.7553ZM19.012 35.1739L17.5146 31.9919L16.6098 32.4177L18.1072 35.5997L19.012 35.1739ZM13.253 34.4975L18.4315 35.8701L18.6877 34.9035L13.5092 33.5309L13.253 34.4975Z" fill="black"/>
<defs>
<radialGradient id="paint0_radial_110_294" cx="0" cy="0" r="1" gradientUnits="userSpaceOnUse" gradientTransform="translate(21 33) rotate(90) scale(26 20)">
<stop offset="0.479167" stop-color="#18A0FB"/>
<stop offset="1" stop-color="#002744"/>
</radialGradient>
</defs>
</svg>
